<svg width="487" height="144" viewBox="0 0 487 144" fill="none" xmlns="http://www.w3.org/2000/svg">
<path d="M47.7996 63.1787C48.8166 61.9496 49.5794 60.9662 50.5964 60.2287C64.8346 45.9705 81.6154 35.8914 99.9216 27.2873C114.923 20.404 130.432 14.9958 146.196 10.8166C147.467 10.5708 148.738 10.3249 150.264 10.0791C150.264 41.2997 150.264 72.2745 150.264 103.987C118.228 84.8119 83.3951 73.5037 47.7996 63.1787ZM0.254269 79.6495C0.254269 100.054 0.254269 120.212 0.254269 140.616C0.254269 143.32 1.27127 143.566 3.8138 143.566C42.2061 143.566 80.5983 143.566 118.991 143.566C119.753 143.566 120.516 143.32 122.296 143.32C86.192 112.591 47.0369 89.2369 0.76273 76.9453C0.254222 77.9286 0.254269 78.6662 0.254269 79.6495ZM147.213 0.245847C145.687 0.245847 144.925 0 144.162 0C97.3791 0 50.3422 0 3.55953 0C0.762745 0 0 0.737555 0 3.4417C0 22.1249 0 41.0539 0 59.7371C0 60.4746 1.55146e-05 61.2121 0.254269 62.687C43.2231 28.2706 93.0568 10.5708 147.213 0.245847ZM133.992 123.162L133.737 123.407L138.06 126.357L133.992 123.162ZM124.838 116.524L115.177 110.378L114.414 111.608L124.33 117.508L124.838 116.524ZM105.515 104.233L95.5993 98.5785L94.5823 100.545L104.752 105.708L105.515 104.233ZM85.1749 93.416L74.7505 88.4994L73.4793 90.9577L83.9037 95.6285L85.1749 93.416ZM64.3261 83.8286L53.6475 79.6495L52.3762 82.5994L63.0548 86.7786L64.3261 83.8286ZM42.7146 75.4703L31.7817 71.7828L30.7647 74.9786L41.6976 78.4203L42.7146 75.4703ZM20.3403 68.5871L15.2552 67.1121L16.0179 69.8162L19.8317 66.3745L17.5435 63.9162L13.7297 67.6037L11.6957 69.5704L14.7467 70.3078L19.8317 71.537L20.3403 68.5871ZM27.9679 59.7371L36.3582 53.3455L34.3242 50.6413L25.6796 57.033L27.9679 59.7371ZM45.2571 47.4455L54.4102 41.7914L52.6305 39.0873L43.4774 44.7414L45.2571 47.4455ZM63.8177 36.3831L73.225 31.4665L71.9537 28.7623L62.2921 33.679L63.8177 36.3831ZM82.8867 26.7957L92.8025 22.6165L91.7855 20.4041L81.6154 24.3374L82.8867 26.7957ZM102.973 18.6832L113.143 14.9957L112.634 13.275L102.21 16.7166L102.973 18.6832ZM123.313 11.8L133.737 8.84995L133.483 8.11249L122.804 10.5708L123.313 11.8ZM144.416 6.14579L149.755 4.91663L144.416 5.90002V6.14579Z" fill="#222222"/>
<path d="M216.283 42.7752L208.655 24.092L185.264 77.9291H202.045L216.283 42.7752Z" fill="#222222"/>
<path d="M227.471 23.1076H212.724L218.572 37.6117L234.844 77.928H251.625L227.471 23.1076Z" fill="#222222"/>
<path d="M388.667 42.7752L381.293 24.092L357.648 77.9291H374.683L388.667 42.7752Z" fill="#222222"/>
<path d="M399.855 23.1076H385.108L390.956 37.6117L407.228 77.928H424.263L399.855 23.1076Z" fill="#222222"/>
<path d="M283.405 51.378L272.727 22.8615H255.692L276.54 72.2737L283.405 51.378Z" fill="#222222"/>
<path d="M321.544 52.853L308.831 22.8615H297.136L279.084 78.1736H292.813L302.983 45.9697L314.933 72.7653L321.544 52.853Z" fill="#222222"/>
<path d="M335.783 22.8615L317.731 78.1736H331.206L350.275 22.8615H335.783Z" fill="#222222"/>
<path d="M454.265 37.3658L443.841 23.1076H426.551L446.129 49.6574L454.265 37.3658Z" fill="#222222"/>
<path d="M469.011 23.1076L448.671 53.099V77.928H465.198V52.8532L486.301 23.1076H469.011Z" fill="#222222"/>
<path d="M251.127 116.023H249.328L254.533 101.846H256.305L261.511 116.023H259.711L255.474 104.089H255.364L251.127 116.023ZM251.792 110.485H259.046V112.008H251.792V110.485ZM273.576 116.023H269.201V101.846H273.77C275.145 101.846 276.322 102.13 277.3 102.698C278.278 103.261 279.028 104.071 279.55 105.128C280.071 106.18 280.332 107.439 280.332 108.907C280.332 110.384 280.069 111.655 279.543 112.721C279.017 113.782 278.25 114.599 277.244 115.171C276.238 115.739 275.016 116.023 273.576 116.023ZM270.918 114.5H273.465C274.637 114.5 275.609 114.274 276.379 113.822C277.15 113.369 277.724 112.726 278.103 111.89C278.481 111.055 278.67 110.061 278.67 108.907C278.67 107.763 278.484 106.777 278.11 105.951C277.736 105.121 277.178 104.484 276.435 104.041C275.692 103.593 274.766 103.369 273.659 103.369H270.918V114.5ZM284.928 101.846V116.023H283.211V101.846H284.928ZM288.37 116.023V101.846H296.87V103.369H290.087V108.159H296.233V109.682H290.087V116.023H288.37ZM299.81 116.023V101.846H308.311V103.369H301.527V108.159H307.674V109.682H301.527V116.023H299.81ZM311.251 116.023V101.846H319.807V103.369H312.968V108.159H319.364V109.682H312.968V114.5H319.917V116.023H311.251ZM322.901 116.023V101.846H327.691C328.798 101.846 329.708 102.036 330.418 102.414C331.129 102.788 331.655 103.302 331.996 103.958C332.338 104.613 332.509 105.358 332.509 106.194C332.509 107.029 332.338 107.769 331.996 108.416C331.655 109.062 331.131 109.569 330.425 109.938C329.719 110.303 328.817 110.485 327.719 110.485H323.842V108.935H327.663C328.42 108.935 329.029 108.824 329.491 108.602C329.957 108.381 330.294 108.067 330.501 107.661C330.714 107.25 330.82 106.761 330.82 106.194C330.82 105.626 330.714 105.13 330.501 104.705C330.289 104.281 329.95 103.953 329.484 103.722C329.018 103.487 328.402 103.369 327.636 103.369H324.617V116.023H322.901ZM329.574 109.655L333.062 116.023H331.069L327.636 109.655H329.574ZM335.369 116.023V101.846H343.925V103.369H337.086V108.159H343.482V109.682H337.086V114.5H344.036V116.023H335.369ZM358.261 101.846V116.023H356.599L348.874 104.892H348.736V116.023H347.019V101.846H348.68L356.433 113.005H356.572V101.846H358.261ZM360.92 103.369V101.846H371.553V103.369H367.095V116.023H365.378V103.369H360.92ZM382.259 116.023L378.383 101.846H380.127L383.09 113.392H383.229L386.247 101.846H388.185L391.203 113.392H391.341L394.304 101.846H396.048L392.172 116.023H390.4L387.271 104.726H387.16L384.032 116.023H382.259ZM397.665 116.023H395.865L401.07 101.846H402.842L408.048 116.023H406.248L402.012 104.089H401.901L397.665 116.023ZM398.329 110.485H405.583V112.008H398.329V110.485ZM407.591 101.846H409.557L413.488 108.464H413.655L417.586 101.846H419.552L414.43 110.181V116.023H412.713V110.181L407.591 101.846Z" fill="#222222"/>
</svg>
