<svg width="31" height="30" viewBox="0 0 31 30" fill="none" xmlns="http://www.w3.org/2000/svg">
<path d="M9.78363 12.8691C9.99179 12.6187 10.1479 12.4184 10.3561 12.2682C13.2704 9.3639 16.705 7.31085 20.452 5.55825C23.5223 4.15617 26.6968 3.05455 29.9233 2.20328C30.1836 2.15321 30.4438 2.10312 30.756 2.05305C30.756 8.41249 30.756 14.7219 30.756 21.1814C24.1989 17.2756 17.0693 14.9722 9.78363 12.8691ZM0.0520438 16.2241C0.0520438 20.3803 0.0520438 24.4863 0.0520438 28.6425C0.0520438 29.1933 0.260203 29.2434 0.780609 29.2434C8.63874 29.2434 16.4969 29.2434 24.355 29.2434C24.5111 29.2434 24.6673 29.1933 25.0315 29.1933C17.6418 22.934 9.62751 18.177 0.156115 15.6733C0.0520342 15.8736 0.0520438 16.0238 0.0520438 16.2241ZM30.1315 0.0500774C29.8193 0.0500774 29.6632 0 29.507 0C19.9316 0 10.304 0 0.728565 0C0.156119 0 0 0.150235 0 0.701053C0 4.5067 0 8.36242 0 12.1681C0 12.3183 3.173e-06 12.4685 0.0520438 12.769C8.84691 5.75855 19.0469 2.1532 30.1315 0.0500774ZM27.4254 25.0872L27.3734 25.1373L28.258 25.7382L27.4254 25.0872ZM25.5519 23.7352L23.5744 22.4834L23.4183 22.7338L25.4479 23.9355L25.5519 23.7352ZM21.5969 21.2315L19.5673 20.0798L19.3591 20.4804L21.4407 21.532L21.5969 21.2315ZM17.4336 19.0282L15.2999 18.0268L15.0397 18.5275L17.1734 19.4789L17.4336 19.0282ZM13.1663 17.0753L10.9806 16.2241L10.7204 16.825L12.9061 17.6762L13.1663 17.0753ZM8.74282 15.3728L6.50508 14.6217L6.29692 15.2727L8.53466 15.9737L8.74282 15.3728ZM4.16325 13.9707L3.12244 13.6703L3.27855 14.2211L4.05916 13.5201L3.5908 13.0193L2.81019 13.7704L2.39387 14.171L3.01835 14.3213L4.05916 14.5716L4.16325 13.9707ZM5.72447 12.1681L7.4418 10.8661L7.02548 10.3153L5.2561 11.6172L5.72447 12.1681ZM9.26322 9.66435L11.1367 8.51263L10.7724 7.96183L8.89895 9.11353L9.26322 9.66435ZM13.0622 7.41101L14.9877 6.40952L14.7275 5.8587L12.7499 6.86019L13.0622 7.41101ZM16.9652 5.45811L18.9948 4.60684L18.7867 4.15618L16.705 4.95737L16.9652 5.45811ZM21.0764 3.80565L23.1581 3.05454L23.054 2.70403L20.9203 3.40506L21.0764 3.80565ZM25.2397 2.40358L27.3734 1.80268L27.3213 1.65246L25.1356 2.1532L25.2397 2.40358ZM29.5591 1.25186L30.6519 1.00149L29.5591 1.2018V1.25186Z" fill="black"/>
</svg>
